# Blender 4.0.2
# www.blender.org
mtllib portal.mtl
o Circle
v 0.000000 0.000000 -1.000000
v -0.382683 0.000000 -0.923880
v -0.707107 0.000000 -0.707107
v -0.923880 0.000000 -0.382683
v -1.000000 0.000000 0.000000
v -0.923880 0.000000 0.382683
v -0.707107 0.000000 0.707107
v -0.382683 0.000000 0.923880
v 0.000000 0.000000 1.000000
v 0.382683 0.000000 0.923880
v 0.707107 0.000000 0.707107
v 0.923880 0.000000 0.382683
v 1.000000 0.000000 0.000000
v 0.923880 0.000000 -0.382683
v 0.707107 0.000000 -0.707107
v 0.382683 0.000000 -0.923880
vn -0.0000 1.0000 -0.0000
vt 0.216829 0.923795
vt 0.076205 0.783171
vt 0.000100 0.599436
vt 0.000100 0.400564
vt 0.076205 0.216830
vt 0.216829 0.076205
vt 0.400563 0.000100
vt 0.599436 0.000100
vt 0.783170 0.076205
vt 0.923795 0.216829
vt 0.999900 0.400564
vt 0.999900 0.599436
vt 0.923795 0.783170
vt 0.783171 0.923795
vt 0.599436 0.999900
vt 0.400564 0.999900
s 0
f 2/1/1 3/2/1 4/3/1 5/4/1 6/5/1 7/6/1 8/7/1 9/8/1 10/9/1 11/10/1 12/11/1 13/12/1 14/13/1 15/14/1 16/15/1 1/16/1
