# Blender 4.0.2
# www.blender.org
mtllib warp_sphere.mtl
o warp_sphere
v 0.084183 0.038759 0.009176
v 0.087165 0.032796 0.000000
v 0.026935 0.032796 -0.082898
v -0.079359 -0.048407 0.005671
v 0.034740 0.038759 0.077227
v -0.029916 -0.048407 0.073722
v 0.070517 -0.032796 0.051233
v -0.007805 -0.092630 -0.005671
v 0.002981 -0.092630 -0.009176
v 0.009648 -0.092630 0.000000
v 0.002981 -0.092630 0.009176
v -0.079359 -0.048407 -0.005671
v -0.029916 -0.048407 -0.073722
v -0.017287 -0.038759 0.082898
v -0.026935 -0.032796 -0.082898
v -0.084183 -0.038759 -0.009176
v -0.067536 0.048407 0.042058
v 0.026935 0.032796 0.082898
v -0.062712 0.038759 0.056904
v 0.029916 0.048407 0.073722
v 0.079359 0.048407 0.005671
v 0.007805 0.092630 0.005671
v 0.029916 0.048407 -0.073722
v 0.079359 0.048407 -0.005671
v 0.007805 0.092630 -0.005671
v -0.060869 0.048407 -0.051233
v 0.019129 0.048407 -0.077227
v -0.002981 0.092630 -0.009176
v -0.067536 0.048407 -0.042058
v -0.009648 0.092630 0.000000
v 0.019129 0.048407 0.077227
v -0.060869 0.048407 0.051233
v -0.002981 0.092630 0.009176
v -0.026935 -0.032796 0.082898
v 0.017287 0.038759 0.082898
v -0.007805 -0.092630 0.005671
v -0.034740 -0.038759 0.077227
v -0.084183 -0.038759 0.009176
v -0.070517 0.032796 0.051233
v -0.087165 -0.032796 0.000000
v -0.073499 0.038759 0.042058
v -0.073499 0.038759 -0.042058
v -0.062712 0.038759 -0.056904
v 0.017287 0.038759 -0.082898
v -0.034740 -0.038759 -0.077227
v -0.070517 0.032796 -0.051233
v 0.062712 -0.038759 -0.056904
v -0.017287 -0.038759 -0.082898
v 0.084183 0.038759 -0.009176
v 0.034740 0.038759 -0.077227
v 0.070517 -0.032796 -0.051233
v 0.073499 -0.038759 -0.042058
v 0.073499 -0.038759 0.042058
v 0.062712 -0.038759 0.056904
v 0.060869 -0.048407 0.051233
v -0.019129 -0.048407 0.077227
v 0.067536 -0.048407 0.042058
v 0.067536 -0.048407 -0.042058
v -0.019129 -0.048407 -0.077227
v 0.060869 -0.048407 -0.051233
v 0.062054 0.007926 -0.000000
v 0.056587 -0.020696 0.016823
v 0.019175 0.007926 -0.059016
v 0.033486 -0.020696 -0.048618
v 0.055669 0.020696 0.019650
v 0.035891 0.020696 0.046871
v 0.050202 -0.007926 -0.036473
v 0.055669 0.020696 -0.019650
v 0.001487 -0.020696 -0.059016
v 0.056587 -0.020696 -0.016823
v -0.025560 -0.041358 0.039365
v -0.045338 -0.041358 0.012145
v 0.050202 -0.007926 0.036473
v -0.016716 -0.059047 0.012145
v 0.035891 0.020696 -0.046871
v 0.006385 -0.059047 -0.019650
v 0.029540 -0.041358 -0.036473
v -0.002459 -0.041358 -0.046871
v -0.002459 -0.041358 0.046871
v 0.006385 -0.059047 0.019650
v 0.043817 -0.041358 -0.016823
v 0.043817 -0.041358 0.016823
v -0.045338 -0.041358 -0.012145
v -0.016716 -0.059047 -0.012145
v 0.020662 -0.059047 0.000000
v -0.025560 -0.041358 -0.039365
v 0.029540 -0.041358 0.036473
v -0.055669 -0.020696 -0.019650
v -0.050202 0.007926 -0.036473
v -0.035891 -0.020696 0.046871
v -0.050202 0.007926 0.036473
v 0.033486 -0.020696 0.048618
v 0.001487 -0.020696 0.059016
v -0.056587 0.020696 0.016823
v -0.056587 0.020696 -0.016823
v 0.019175 0.007926 0.059016
v -0.035891 -0.020696 -0.046871
v -0.055669 -0.020696 0.019650
v -0.033486 0.020696 -0.048618
v -0.019175 -0.007926 -0.059016
v -0.001487 0.020696 -0.059016
v -0.001487 0.020696 0.059016
v -0.019175 -0.007926 0.059016
v -0.006385 0.059047 -0.019650
v -0.029540 0.041358 -0.036473
v -0.033486 0.020696 0.048618
v -0.020662 0.059047 0.000000
v -0.043817 0.041358 0.016823
v 0.002459 0.041358 -0.046871
v 0.002459 0.041358 0.046871
v -0.029540 0.041358 0.036473
v -0.043817 0.041358 -0.016823
v 0.016716 0.059047 0.012145
v 0.025560 0.041358 0.039365
v 0.045338 0.041358 0.012145
v 0.045338 0.041358 -0.012145
v 0.016716 0.059047 -0.012145
v 0.025560 0.041358 -0.039365
v -0.006385 0.059047 0.019650
v -0.062054 -0.007926 -0.000000
v 0.000000 0.000000 0.000000
v 0.000000 0.000000 0.000000
v 0.000000 0.000000 0.000000
v 0.000000 0.000000 0.000000
v 0.000000 0.000000 0.000000
v 0.000000 0.000000 0.000000
v 0.000000 0.000000 0.000000
v 0.000000 0.000000 0.000000
v 0.000000 0.000000 0.000000
v 0.000000 0.000000 0.000000
v 0.000000 0.000000 0.000000
v 0.000000 0.000000 0.000000
v 0.000000 0.000000 0.000000
v 0.000000 0.000000 0.000000
v 0.000000 0.000000 0.000000
v 0.000000 0.000000 0.000000
v 0.000000 0.000000 0.000000
v 0.000000 0.000000 0.000000
v 0.000000 0.000000 0.000000
v 0.000000 0.000000 0.000000
v 0.000000 0.000000 0.000000
v 0.000000 0.000000 0.000000
v 0.000000 0.000000 0.000000
v 0.000000 0.000000 0.000000
v 0.000000 0.000000 0.000000
v 0.000000 0.000000 0.000000
v 0.000000 0.000000 0.000000
v 0.000000 0.000000 0.000000
v 0.000000 0.000000 0.000000
v 0.000000 0.000000 0.000000
v 0.000000 0.000000 0.000000
v 0.000000 0.000000 0.000000
v 0.000000 0.000000 0.000000
v 0.000000 0.000000 0.000000
v 0.000000 0.000000 0.000000
v 0.000000 0.000000 0.000000
v 0.000000 0.000000 0.000000
v 0.000000 0.000000 0.000000
v 0.000000 0.000000 0.000000
v 0.000000 0.000000 0.000000
v 0.000000 0.000000 0.000000
v 0.000000 0.000000 0.000000
v 0.000000 0.000000 0.000000
v 0.000000 0.000000 0.000000
v 0.000000 0.000000 0.000000
v 0.000000 0.000000 0.000000
v 0.000000 0.000000 0.000000
v 0.000000 0.000000 0.000000
v 0.000000 0.000000 0.000000
v 0.000000 0.000000 0.000000
v 0.000000 0.000000 0.000000
v 0.000000 0.000000 0.000000
v 0.000000 0.000000 0.000000
v 0.000000 0.000000 0.000000
v 0.000000 0.000000 0.000000
v 0.000000 0.000000 0.000000
v 0.000000 0.000000 0.000000
v 0.000000 0.000000 0.000000
v 0.000000 0.000000 0.000000
v 0.000000 0.000000 0.000000
vn -0.3035 0.1876 0.9342
vn -0.9822 0.1876 -0.0000
vn -0.7946 -0.1876 0.5774
vn 0.4911 0.7947 -0.3568
vn -0.7946 -0.1876 -0.5774
vn -0.6071 0.7947 -0.0000
vn -0.1876 0.7947 0.5774
vn -0.1876 0.7947 -0.5774
vn 0.4911 0.7947 0.3568
vn 0.7946 0.1876 0.5774
vn -0.3035 0.1876 -0.9342
vn 0.3035 -0.1876 0.9342
vn 0.9822 -0.1876 -0.0000
vn 0.7946 0.1876 -0.5774
vn 0.3035 -0.1876 -0.9342
vn -0.4911 -0.7947 0.3568
vn 0.1876 -0.7947 0.5774
vn 0.1876 -0.7947 -0.5774
vn 0.6071 -0.7947 -0.0000
vn -0.4911 -0.7947 -0.3568
vn 0.5553 -0.7272 0.4035
vn -0.9643 -0.1715 0.2019
vn 0.4492 -0.5149 -0.7301
vn -0.4900 -0.1715 0.8547
vn -0.6614 0.1715 0.7301
vn -0.9643 -0.1715 -0.2019
vn -0.8988 0.1715 0.4035
vn 0.8988 -0.1715 0.4035
vn 0.4900 0.1715 -0.8547
vn -0.5553 0.7272 0.4035
vn 0.1060 0.1715 -0.9795
vn -0.1060 -0.1715 -0.9795
vn -0.6864 -0.7272 -0.0000
vn -0.1060 -0.1715 0.9795
vn 0.9643 0.1715 0.2019
vn -0.5553 0.7272 -0.4035
vn 0.9643 0.1715 -0.2019
vn 0.8988 -0.1715 -0.4035
vn -0.6614 0.1715 -0.7301
vn 0.6864 0.7272 -0.0000
vn 0.5104 0.5074 0.6943
vn -0.9604 -0.2226 -0.1674
vn -0.6786 0.2226 -0.7000
vn 0.5906 -0.6835 -0.4291
vn 0.0880 0.9586 0.2709
vn -0.1375 -0.2226 0.9652
vn 0.0880 0.9586 -0.2709
vn -0.0049 0.5074 0.8617
vn 0.2849 0.9586 -0.0000
vn -0.4560 -0.2226 -0.8617
vn 0.9604 0.2226 -0.1674
vn 0.8754 -0.2226 -0.4291
vn -0.2305 0.9586 -0.1674
vn 0.8754 -0.2226 0.4291
vn 0.1375 0.2226 0.9652
vn -0.2849 -0.9586 -0.0000
vn 0.1375 0.2226 -0.9652
vn -0.1375 -0.2226 -0.9652
vn -0.2305 0.9586 0.1674
vn 0.6786 -0.2226 -0.7000
vn 0.9604 0.2226 0.1674
vn -0.9604 -0.2226 0.1674
vn -0.8754 0.2226 -0.4291
vn -0.4560 -0.2226 0.8617
vn -0.6786 0.2226 0.7000
vn 0.0049 -0.5074 -0.8617
vn -0.8754 0.2226 0.4291
vn 0.2305 -0.9586 0.1674
vn 0.4560 0.2226 0.8617
vn -0.8180 -0.5074 -0.2709
vn -0.2256 -0.6835 0.6942
vn 0.2256 0.6835 0.6942
vn 0.0049 -0.5074 0.8617
vn -0.7300 -0.6835 -0.0000
vn -0.5025 0.5074 -0.7000
vn -0.5104 -0.5074 0.6943
vn -0.5025 0.5074 0.7000
vn -0.5906 0.6835 -0.4291
vn 0.5025 -0.5074 -0.7000
vn -0.2256 -0.6835 -0.6942
vn -0.5906 0.6835 0.4291
vn -0.5104 -0.5074 -0.6943
vn 0.2256 0.6835 -0.6942
vn 0.5104 0.5074 -0.6943
vn 0.5906 -0.6835 0.4291
vn 0.8180 0.5074 0.2709
vn -0.8210 0.5074 -0.2616
vn -0.0049 0.5074 -0.8617
vn 0.7300 0.6835 -0.0000
vn -0.8180 -0.5074 0.2709
vn 0.8210 -0.5074 -0.2616
vn -0.0880 -0.9586 -0.2709
vn -0.8210 0.5074 0.2616
vn 0.5025 -0.5074 0.7000
vn 0.6786 -0.2226 0.7000
vn 0.8210 -0.5074 0.2616
vn 0.2305 -0.9586 -0.1674
vn -0.0880 -0.9586 0.2709
vn 0.4560 0.2226 -0.8617
vn 0.8180 0.5074 -0.2709
vn -0.0000 1.0000 -0.0000
vn 0.6614 -0.1715 0.7301
vn -0.5556 -0.5149 -0.6528
vn -0.1061 -0.9392 0.3267
vn 0.1061 0.9392 0.3267
vn 0.4492 -0.5149 0.7301
vn -0.3435 -0.9392 -0.0000
vn -0.0658 0.5149 -0.8547
vn -0.7925 -0.5149 0.3267
vn -0.0658 0.5149 0.8547
vn -0.2779 0.9392 -0.2019
vn 0.0658 -0.5149 -0.8547
vn -0.1061 -0.9392 -0.3267
vn -0.2779 0.9392 0.2019
vn -0.7925 -0.5149 -0.3267
vn 0.1061 0.9392 -0.3267
vn 0.7925 0.5149 -0.3267
vn 0.2779 -0.9392 0.2019
vn 0.5556 0.5149 0.6528
vn -0.8332 0.5149 0.2016
vn -0.4492 0.5149 -0.7301
vn 0.3435 0.9392 -0.0000
vn -0.5556 -0.5149 0.6528
vn 0.8332 -0.5149 0.2016
vn -0.2121 -0.7272 -0.6528
vn -0.8332 0.5149 -0.2016
vn 0.0658 -0.5149 0.8547
vn 0.4900 0.1715 0.8547
vn 0.8332 -0.5149 -0.2016
vn 0.5553 -0.7272 -0.4035
vn -0.2121 -0.7272 0.6528
vn 0.6614 -0.1715 -0.7301
vn 0.5556 0.5149 -0.6528
vn 0.7925 0.5149 0.3267
vn -0.8988 0.1715 -0.4035
vn -0.4900 -0.1715 -0.8547
vn 0.2779 -0.9392 -0.2019
vn 0.2121 0.7272 0.6528
vn 0.1060 0.1715 0.9795
vn 0.2121 0.7272 -0.6528
vn -0.4492 0.5149 0.7301
vt 0.454546 0.157461
vt 0.545455 0.314921
vt 0.636364 0.157461
vt 0.272728 0.157461
vt 0.363637 0.314921
vt 0.909091 0.000000
vt 0.818182 0.157461
vt 1.000000 0.157461
vt 0.181819 0.314921
vt 0.363637 0.000000
vt 0.545455 0.000000
vt 0.181819 0.000000
vt 0.090910 0.157461
vt 0.727273 0.000000
vt 0.727273 0.314921
vt 0.909091 0.314921
vt 0.000000 0.314921
vt 0.454546 0.472382
vt 0.636364 0.472382
vt 0.090910 0.472382
vt 0.818182 0.472382
vt 0.272728 0.472382
s 0
f 47/1/1 3/2/1 48/3/1
f 53/4/2 2/5/2 52/1/2
f 51/1/3 49/5/3 50/2/3
f 36/6/4 4/7/4 6/8/4
f 7/4/5 5/9/5 1/5/5
f 57/4/6 58/1/6 10/10/6
f 9/11/7 60/1/7 59/3/7
f 11/12/8 56/13/8 55/4/8
f 8/14/9 13/3/9 12/7/9
f 45/3/10 46/15/10 16/7/10
f 14/13/11 18/9/11 54/4/11
f 15/3/12 44/2/12 43/15/12
f 40/7/13 42/15/13 41/16/13
f 38/7/14 39/16/14 37/8/14
f 34/13/15 19/17/15 35/9/15
f 24/5/16 25/18/16 23/2/16
f 27/2/17 28/19/17 26/15/17
f 32/17/18 33/20/18 31/9/18
f 29/15/19 30/21/19 17/16/19
f 20/9/20 22/22/20 21/5/20
f 83/7/21 86/3/21 146/3/21 143/7/21
f 110/9/22 119/20/22 179/20/22 170/9/22
f 88/7/23 89/15/23 149/15/23 148/7/23
f 107/21/24 112/15/24 172/15/24 167/21/24
f 80/12/25 87/4/25 147/4/25 140/12/25
f 104/19/26 109/2/26 169/2/26 164/19/26
f 86/3/27 84/14/27 144/14/27 146/3/27
f 118/2/28 117/18/28 177/18/28 178/2/28
f 82/4/29 85/10/29 145/10/29 142/4/29
f 116/5/30 118/2/30 178/2/30 176/5/30
f 84/14/31 83/7/31 143/7/31 144/14/31
f 117/18/32 116/5/32 176/5/32 177/18/32
f 81/1/33 82/4/33 142/4/33 141/1/33
f 115/5/34 113/22/34 173/22/34 175/5/34
f 79/13/35 80/12/35 140/12/35 139/13/35
f 114/9/36 115/5/36 175/5/36 174/9/36
f 76/11/37 78/3/37 138/3/37 136/11/37
f 113/22/38 114/9/38 174/9/38 173/22/38
f 77/1/39 76/11/39 136/11/39 137/1/39
f 112/15/40 108/16/40 168/16/40 172/15/40
f 19/17/41 34/13/41 103/13/41 106/17/41
f 36/6/42 6/8/42 71/8/42 74/6/42
f 17/16/43 30/21/43 107/21/43 108/16/43
f 50/2/44 49/5/44 68/5/44 75/2/44
f 27/2/45 26/15/45 105/15/45 109/2/45
f 4/7/46 36/6/46 74/6/46 72/7/46
f 32/17/47 31/9/47 110/9/47 111/17/47
f 7/4/48 1/5/48 65/5/48 73/4/48
f 29/15/49 17/16/49 108/16/49 112/15/49
f 60/1/50 9/11/50 76/11/50 77/1/50
f 22/22/51 20/9/51 114/9/51 113/22/51
f 9/11/52 59/3/52 78/3/52 76/11/52
f 20/9/53 21/5/53 115/5/53 114/9/53
f 56/13/54 11/12/54 80/12/54 79/13/54
f 21/5/55 22/22/55 113/22/55 115/5/55
f 58/1/56 57/4/56 82/4/56 81/1/56
f 25/18/57 24/5/57 116/5/57 117/18/57
f 8/14/58 12/7/58 83/7/58 84/14/58
f 24/5/59 23/2/59 118/2/59 116/5/59
f 57/4/60 10/10/60 85/10/60 82/4/60
f 23/2/61 25/18/61 117/18/61 118/2/61
f 13/3/62 8/14/62 84/14/62 86/3/62
f 28/19/63 27/2/63 109/2/63 104/19/63
f 11/12/64 55/4/64 87/4/64 80/12/64
f 30/21/65 29/15/65 112/15/65 107/21/65
f 16/7/66 46/15/66 89/15/66 88/7/66
f 31/9/67 33/20/67 119/20/67 110/9/67
f 12/7/68 13/3/68 86/3/68 83/7/68
f 33/20/69 32/17/69 111/17/69 119/20/69
f 37/8/70 39/16/70 91/16/70 90/8/70
f 35/9/71 19/17/71 106/17/71 102/9/71
f 14/13/72 54/4/72 92/4/72 93/13/72
f 39/16/73 38/7/73 98/7/73 91/16/73
f 41/16/74 42/15/74 95/15/74 94/16/74
f 40/7/75 41/16/75 94/16/75 120/7/75
f 54/4/76 18/9/76 96/9/76 92/4/76
f 42/15/77 40/7/77 120/7/77 95/15/77
f 45/3/78 16/7/78 88/7/78 97/3/78
f 2/5/79 53/4/79 62/4/79 61/5/79
f 43/15/80 44/2/80 101/2/80 99/15/80
f 38/7/81 37/8/81 90/8/81 98/7/81
f 3/2/82 47/1/82 64/1/82 63/2/82
f 47/1/83 48/3/83 69/3/83 64/1/83
f 15/3/84 43/15/84 99/15/84 100/3/84
f 1/5/85 5/9/85 66/9/85 65/5/85
f 51/1/86 50/2/86 75/2/86 67/1/86
f 44/2/87 15/3/87 100/3/87 101/2/87
f 49/5/88 51/1/88 67/1/88 68/5/88
f 53/4/89 52/1/89 70/1/89 62/4/89
f 46/15/90 45/3/90 97/3/90 89/15/90
f 48/3/91 3/2/91 63/2/91 69/3/91
f 55/4/92 56/13/92 79/13/92 87/4/92
f 34/13/93 35/9/93 102/9/93 103/13/93
f 52/1/94 2/5/94 61/5/94 70/1/94
f 10/10/95 58/1/95 81/1/95 85/10/95
f 18/9/96 14/13/96 93/13/96 96/9/96
f 6/8/97 4/7/97 72/7/97 71/8/97
f 59/3/98 60/1/98 77/1/98 78/3/98
f 26/15/99 28/19/99 104/19/99 105/15/99
f 5/9/100 7/4/100 73/4/100 66/9/100
f 124/1/101 129/3/101 123/2/101
f 122/4/101 130/1/101 121/5/101
f 127/1/101 135/2/101 128/5/101
f 134/6/101 131/8/101 132/7/101
f 133/4/101 125/5/101 126/9/101
f 142/4/101 145/10/101 141/1/101
f 136/11/101 138/3/101 137/1/101
f 140/12/101 147/4/101 139/13/101
f 144/14/101 143/7/101 146/3/101
f 157/3/101 148/7/101 149/15/101
f 153/13/101 152/4/101 156/9/101
f 160/3/101 159/15/101 161/2/101
f 180/7/101 154/16/101 155/15/101
f 158/7/101 150/8/101 151/16/101
f 163/13/101 162/9/101 166/17/101
f 176/5/101 178/2/101 177/18/101
f 169/2/101 165/15/101 164/19/101
f 171/17/101 170/9/101 179/20/101
f 172/15/101 168/16/101 167/21/101
f 174/9/101 175/5/101 173/22/101
f 119/20/102 111/17/102 171/17/102 179/20/102
f 90/8/103 91/16/103 151/16/103 150/8/103
f 102/9/104 106/17/104 166/17/104 162/9/104
f 93/13/105 92/4/105 152/4/105 153/13/105
f 91/16/106 98/7/106 158/7/106 151/16/106
f 94/16/107 95/15/107 155/15/107 154/16/107
f 120/7/108 94/16/108 154/16/108 180/7/108
f 92/4/109 96/9/109 156/9/109 152/4/109
f 95/15/110 120/7/110 180/7/110 155/15/110
f 97/3/111 88/7/111 148/7/111 157/3/111
f 61/5/112 62/4/112 122/4/112 121/5/112
f 99/15/113 101/2/113 161/2/113 159/15/113
f 98/7/114 90/8/114 150/8/114 158/7/114
f 63/2/115 64/1/115 124/1/115 123/2/115
f 64/1/116 69/3/116 129/3/116 124/1/116
f 100/3/117 99/15/117 159/15/117 160/3/117
f 65/5/118 66/9/118 126/9/118 125/5/118
f 67/1/119 75/2/119 135/2/119 127/1/119
f 101/2/120 100/3/120 160/3/120 161/2/120
f 68/5/121 67/1/121 127/1/121 128/5/121
f 62/4/122 70/1/122 130/1/122 122/4/122
f 89/15/123 97/3/123 157/3/123 149/15/123
f 69/3/124 63/2/124 123/2/124 129/3/124
f 87/4/125 79/13/125 139/13/125 147/4/125
f 103/13/126 102/9/126 162/9/126 163/13/126
f 70/1/127 61/5/127 121/5/127 130/1/127
f 85/10/128 81/1/128 141/1/128 145/10/128
f 96/9/129 93/13/129 153/13/129 156/9/129
f 71/8/130 72/7/130 132/7/130 131/8/130
f 78/3/131 77/1/131 137/1/131 138/3/131
f 105/15/132 104/19/132 164/19/132 165/15/132
f 66/9/133 73/4/133 133/4/133 126/9/133
f 106/17/134 103/13/134 163/13/134 166/17/134
f 74/6/135 71/8/135 131/8/135 134/6/135
f 108/16/136 107/21/136 167/21/136 168/16/136
f 75/2/137 68/5/137 128/5/137 135/2/137
f 109/2/138 105/15/138 165/15/138 169/2/138
f 72/7/139 74/6/139 134/6/139 132/7/139
f 111/17/140 110/9/140 170/9/140 171/17/140
f 73/4/141 65/5/141 125/5/141 133/4/141
